<?xml version="1.0" standalone="no"?>
<!DOCTYPE svg PUBLIC "-//W3C//DTD SVG 20010904//EN"
 "http://www.w3.org/TR/2001/REC-SVG-20010904/DTD/svg10.dtd">
<svg version="1.0" xmlns="http://www.w3.org/2000/svg"
 width="256.000000pt" height="256.000000pt" viewBox="0 0 256.000000 256.000000"
 preserveAspectRatio="xMidYMid meet">
<g transform="translate(0.000000,256.000000) scale(0.100000,-0.100000)"
fill="#952735" stroke="none">
<path d="M696 2448 c-21 -29 -20 -40 5 -72 24 -30 59 -34 81 -8 24 27 28 49
12 69 -10 13 -14 14 -12 3 2 -9 -5 -15 -16 -15 -28 0 -31 24 -4 34 21 9 19 10
-14 10 -27 1 -41 -5 -52 -21z"/>
<path d="M505 2278 c-54 -47 -19 -139 53 -138 75 1 105 93 45 140 -34 26 -66
25 -98 -2z m103 -31 c-2 -15 -11 -23 -29 -25 -33 -4 -43 18 -23 47 12 17 19
19 35 10 13 -6 19 -18 17 -32z"/>
<path d="M769 2191 c-21 -22 -29 -39 -29 -66 0 -51 44 -95 95 -95 44 0 95 47
95 87 0 41 -36 90 -71 97 -50 10 -59 8 -90 -23z m114 -3 c27 -20 11 -60 -22
-56 -26 3 -38 26 -27 54 7 17 27 18 49 2z"/>
<path d="M554 2058 c-2 -3 -3 -179 -2 -390 l3 -383 28 -60 c34 -73 95 -138
162 -173 43 -22 65 -27 161 -30 l111 -4 15 -32 c19 -40 7 -88 -27 -106 -30
-16 -83 -3 -155 37 -53 29 -155 73 -184 79 -148 31 -268 -12 -325 -115 -55
-100 -6 -241 74 -211 32 12 45 45 32 86 -20 66 19 116 98 127 59 8 119 -8 226
-63 120 -60 199 -79 260 -61 41 12 91 54 116 96 9 16 10 13 3 -18 -12 -56 -35
-85 -77 -96 -49 -14 -76 -14 -200 1 -90 10 -110 9 -164 -6 -34 -9 -75 -26 -90
-37 -76 -54 -103 -141 -73 -236 22 -71 96 -153 137 -153 25 0 67 33 67 53 0
16 -23 52 -42 65 -27 19 -50 70 -50 109 0 66 46 88 167 82 163 -9 279 -4 313
14 l32 18 0 -29 c0 -44 -34 -79 -119 -122 -92 -48 -101 -55 -135 -104 -78
-115 24 -280 171 -278 89 2 158 57 134 108 -16 37 -48 44 -95 23 -30 -13 -45
-15 -60 -7 -36 19 -56 41 -56 62 1 25 22 56 39 56 6 0 11 4 11 9 0 5 12 12 28
16 63 15 171 104 187 154 8 27 22 27 30 0 13 -41 79 -101 149 -136 84 -42 116
-69 116 -98 0 -48 -74 -78 -127 -52 -39 19 -53 16 -77 -16 -19 -26 -19 -30 -6
-54 13 -22 80 -71 80 -58 0 2 10 1 22 -4 29 -10 104 6 144 32 46 31 84 96 84
146 0 89 -41 140 -161 201 -85 43 -119 78 -119 122 l0 29 33 -18 c32 -17 97
-20 315 -14 112 3 156 -17 160 -73 4 -46 -13 -90 -43 -114 -45 -35 -53 -82
-18 -108 27 -20 52 -17 89 11 27 21 86 103 90 125 0 3 4 22 9 43 17 84 -35
174 -124 215 -62 29 -128 33 -281 18 -110 -11 -163 2 -190 47 -11 18 -20 43
-20 57 0 24 1 24 20 -8 23 -37 71 -69 118 -78 39 -8 152 14 152 29 0 6 3 8 6
4 3 -3 45 14 93 38 130 67 200 77 273 39 41 -21 54 -56 41 -104 -12 -45 0 -79
32 -90 52 -19 98 40 96 123 -2 128 -139 232 -280 214 -87 -12 -106 -18 -217
-72 -131 -64 -158 -72 -189 -55 -61 32 -50 101 27 178 29 29 55 52 59 52 15 0
100 138 120 195 73 203 1 448 -169 579 -174 133 -366 151 -560 54 -80 -40
-177 -135 -219 -213 -91 -173 -81 -390 24 -532 l24 -33 147 2 c141 1 148 2
173 25 54 50 151 36 179 -25 13 -29 3 -45 -12 -19 -10 19 -47 37 -87 44 -22 4
-91 -33 -91 -49 0 -5 -78 -8 -172 -8 -147 0 -179 3 -213 19 -52 24 -88 59
-114 109 -20 40 -21 56 -21 417 0 305 -3 377 -13 381 -22 8 -98 10 -103 2z
m1148 -494 c36 -19 42 -46 35 -163 -9 -162 -29 -184 -164 -182 -98 1 -140 16
-191 67 -38 38 -72 56 -100 51 -28 -5 -75 -34 -102 -63 -14 -15 -40 -33 -59
-41 -40 -17 -191 -19 -221 -3 -40 22 -59 91 -61 221 -1 70 17 114 49 122 9 2
190 5 402 5 313 0 390 -3 412 -14z m-365 -428 c24 -21 28 -30 25 -60 -2 -20
-7 -38 -11 -41 -4 -2 -5 10 -3 26 5 31 -28 79 -54 79 -7 0 -16 5 -19 10 -12
20 34 9 62 -14z"/>
<path d="M908 1562 c-10 -2 -18 -7 -18 -12 0 -4 165 -8 368 -8 202 0 375 -1
385 -1 10 -1 28 -11 41 -24 21 -21 23 -31 20 -99 -2 -41 -10 -96 -18 -121 -15
-49 -13 -56 8 -34 16 16 26 64 32 162 4 69 2 83 -15 105 -11 14 -31 25 -48 26
-15 1 -28 3 -28 4 0 6 -673 4 -687 -2 -9 -4 -18 -4 -20 0 -2 4 -11 6 -20 4z"/>
</g>
</svg>
